<svg width="146" height="40" viewBox="0 0 146 40" fill="none" xmlns="http://www.w3.org/2000/svg">
    <g clip-path="url(#clip0_1010_20985)">
        <path d="M34.203 31.1509C30.8975 35.3566 25.7635 38.0575 19.9994 38.0575C10.0266 38.0575 1.94239 29.9734 1.94239 19.9999C1.94239 16.8438 2.75237 13.8768 4.17519 11.2949H13.912L5.88898 31.1509H34.203ZM35.8233 28.7055H12.6972L20.7187 8.84878H5.79557C9.10181 4.64396 14.2348 1.94253 19.9994 1.94253C25.7639 1.94253 30.8974 4.64396 34.203 8.84892L21.2943 8.84878V26.9063H26.6901V19.9281H31.582V17.4822H26.6901V11.2949H35.8233C37.2468 13.8768 38.0573 16.8438 38.0573 19.9999C38.0573 23.156 37.2469 26.1237 35.8233 28.7055ZM40 19.9998C39.9999 8.95447 31.0448 0 19.9995 0C8.95419 0 0 8.95447 0 19.9998C0 31.0451 8.95447 40 19.9995 40C31.0445 40 40 31.0459 40 19.9998ZM49.4629 39.9992H50.4628V0.000846665H49.4629V39.9992Z" fill="#FFF"/>
        <path d="M75.7568 17.685C75.586 17.0726 75.3151 16.5787 74.9426 16.2062C74.57 15.8336 74.0931 15.5712 73.5117 15.4202C72.9303 15.2692 72.229 15.193 71.4078 15.193C70.5752 15.193 69.8569 15.272 69.2572 15.4301C68.6575 15.5881 68.1678 15.8492 67.7897 16.216C67.4101 16.5829 67.1321 17.0627 66.9557 17.6568C66.7779 18.2509 66.6904 18.9889 66.6904 19.8736V28.6663H69.1528V24.9706C69.4054 25.1851 69.7286 25.353 70.1194 25.4729C70.5117 25.5929 70.9915 25.6535 71.5602 25.6535C72.4068 25.6535 73.1138 25.5646 73.6825 25.3883C74.2512 25.2105 74.7084 24.9325 75.0569 24.5543C75.404 24.1747 75.6496 23.6822 75.7949 23.0754C75.9402 22.4701 76.0136 21.7363 76.0136 20.8784V19.9865C76.0136 19.0651 75.9275 18.2974 75.7568 17.685ZM73.5117 20.915C73.5117 21.5091 73.4835 21.9861 73.4271 22.3459C73.3692 22.7057 73.262 22.9879 73.1039 23.1897C72.9459 23.3915 72.7257 23.5242 72.4407 23.5877C72.1571 23.6512 71.7873 23.6822 71.333 23.6822C70.9026 23.6822 70.5498 23.6469 70.2718 23.5778C69.9938 23.5086 69.7723 23.3816 69.6086 23.1996C69.4435 23.0162 69.3264 22.7636 69.2572 22.4404C69.1881 22.1187 69.1528 21.7109 69.1528 21.2184V19.8736C69.1528 19.2922 69.1852 18.8209 69.2487 18.4611C69.3108 18.1013 69.4251 17.8261 69.5888 17.637C69.7539 17.4479 69.9741 17.3223 70.252 17.2588C70.53 17.1953 70.8899 17.1629 71.333 17.1629C71.7746 17.1629 72.1373 17.1953 72.4223 17.2588C72.7059 17.3223 72.9275 17.4508 73.0855 17.6469C73.2436 17.843 73.3537 18.1239 73.4172 18.4893C73.4807 18.8562 73.5117 19.343 73.5117 19.9484L73.5117 20.915Z" fill="#FFF"/>
        <path d="M93.8918 17.637C93.7211 17.0303 93.4459 16.5477 93.0663 16.1878C92.6881 15.828 92.2013 15.5712 91.6072 15.4202C91.0132 15.2692 90.2935 15.193 89.4468 15.193C88.5889 15.193 87.8622 15.2692 87.2681 15.4202C86.674 15.5712 86.1886 15.828 85.809 16.1878C85.4308 16.5477 85.1556 17.0303 84.9849 17.637C84.8142 18.2438 84.7295 19.0016 84.7295 19.9117V20.9348C84.7295 21.8435 84.8142 22.6027 84.9849 23.2081C85.1556 23.8149 85.4308 24.2975 85.809 24.6587C86.1886 25.0185 86.674 25.274 87.2681 25.4249C87.8622 25.5773 88.5889 25.6535 89.4468 25.6535C90.2935 25.6535 91.0132 25.5773 91.6072 25.4249C92.2013 25.274 92.6881 25.0185 93.0663 24.6587C93.4459 24.2975 93.7211 23.8149 93.8918 23.2081C94.0612 22.6027 94.1472 21.8435 94.1472 20.9348V19.9117C94.1472 19.0016 94.0612 18.2438 93.8918 17.637ZM91.6453 20.9912C91.6453 21.5726 91.6143 22.0397 91.5508 22.3939C91.4873 22.7481 91.3772 23.019 91.2192 23.2081C91.0611 23.3986 90.841 23.5242 90.556 23.5877C90.2723 23.6512 89.9026 23.6822 89.4468 23.6822C88.9925 23.6822 88.6199 23.6512 88.3292 23.5877C88.0385 23.5242 87.8142 23.3986 87.6575 23.2081C87.4981 23.019 87.388 22.7481 87.3259 22.3939C87.2624 22.0397 87.23 21.5726 87.23 20.9912V19.8736C87.23 19.2923 87.2624 18.821 87.3259 18.4611C87.388 18.1013 87.4981 17.8261 87.6575 17.637C87.8142 17.4479 88.0385 17.3224 88.3292 17.2589C88.6199 17.1954 88.9925 17.1629 89.4468 17.1629C89.9026 17.1629 90.2723 17.1954 90.556 17.2589C90.841 17.3224 91.0611 17.4479 91.2192 17.637C91.3772 17.8261 91.4873 18.1013 91.5508 18.4611C91.6143 18.821 91.6453 19.2923 91.6453 19.8736V20.9912Z" fill="#FFF"/>
        <path d="M65.3635 11.8578H59.9629V28.6659H64.9656L65.3635 26.6763H62.2749V13.8475H64.9656L65.3635 11.8578Z" fill="#FFF"/>
        <path d="M81.8115 15.4581C81.1796 15.4581 80.6177 15.5182 80.1249 15.6382C79.6322 15.7584 79.2153 15.9509 78.8743 16.2162C78.5332 16.4815 78.2741 16.832 78.0973 17.2679C77.9204 17.7038 77.832 18.2376 77.832 18.8691V25.3499H80.2955V19.267C80.2955 18.9639 80.3112 18.7018 80.3428 18.4806C80.3741 18.2597 80.4533 18.0764 80.5797 17.9311C80.7058 17.786 80.8828 17.6753 81.1103 17.5995C81.3376 17.5237 81.6533 17.4858 82.0577 17.4858C82.2598 17.4858 82.5125 17.489 82.8158 17.4952C83.1189 17.5018 83.3967 17.5113 83.6495 17.5237L84.0475 15.4772C83.7189 15.4646 83.3842 15.4581 83.0431 15.4581H81.8115Z" fill="#FFF"/>
        <path d="M100.287 11.8578H95.2847L94.8867 13.8475H97.9754V26.6763H95.2847L94.8867 28.6659H100.287V11.8578Z" fill="#FFF"/>
        <path d="M104.368 19.8026V25.3953H103.261V12.0327H107.709C108.534 12.0327 109.241 12.0984 109.829 12.2298C110.417 12.3611 110.893 12.574 111.256 12.8679C111.619 13.162 111.884 13.5406 112.053 14.0033C112.222 14.4663 112.307 15.0294 112.307 15.6924V16.1429C112.307 16.8062 112.219 17.3692 112.044 17.8319C111.869 18.2949 111.596 18.6735 111.228 18.9673C110.858 19.2615 110.383 19.4741 109.801 19.6055C109.219 19.7368 108.522 19.8026 107.709 19.8026L104.368 19.8026ZM111.199 15.7862C111.199 15.2484 111.14 14.8009 111.021 14.4443C110.902 14.0878 110.705 13.8062 110.43 13.5998C110.155 13.3933 109.795 13.2497 109.351 13.1681C108.907 13.0869 108.359 13.0461 107.709 13.0461H104.368V18.7891H107.709C108.372 18.7891 108.925 18.7486 109.37 18.6671C109.814 18.5858 110.173 18.4419 110.449 18.2355C110.724 18.029 110.918 17.7475 111.031 17.3909C111.143 17.0343 111.199 16.5871 111.199 16.049L111.199 15.7862Z" fill="#FFF"/>
        <path d="M121.409 24.3255C121.409 24.7511 121.33 25.0358 121.174 25.1795C121.017 25.3235 120.708 25.3953 120.245 25.3953H117.167C115.878 25.3953 114.952 25.1702 114.39 24.7197C113.826 24.2692 113.545 23.5373 113.545 22.5239V22.2611C113.545 21.2101 113.829 20.4471 114.399 19.9715C114.968 19.4961 115.891 19.2582 117.167 19.2582C118.03 19.2582 118.718 19.3398 119.232 19.5022C119.744 19.665 120.12 19.8902 120.358 20.1779V19.0518C120.358 18.6014 120.314 18.2231 120.226 17.9164C120.139 17.6099 119.982 17.3659 119.757 17.1844C119.532 17.0032 119.219 16.8718 118.819 16.7903C118.418 16.7091 117.911 16.6683 117.298 16.6683C116.835 16.6683 116.347 16.6715 115.835 16.6777C115.321 16.6841 114.859 16.6997 114.446 16.7247L114.652 15.7487C115.002 15.7364 115.415 15.727 115.891 15.7206C116.366 15.7144 116.835 15.7112 117.298 15.7112C118.049 15.7112 118.684 15.7707 119.203 15.8895C119.722 16.0085 120.145 16.1962 120.47 16.4525C120.795 16.7091 121.033 17.0408 121.183 17.4472C121.334 17.8539 121.409 18.3513 121.409 18.9392L121.409 24.3255ZM114.596 22.505C114.596 22.8429 114.636 23.1309 114.718 23.3684C114.799 23.6062 114.937 23.8064 115.131 23.9689C115.325 24.1317 115.587 24.2504 115.919 24.3255C116.25 24.4006 116.667 24.4381 117.167 24.4381H120.358V22.186C120.358 21.7857 120.292 21.4573 120.161 21.2007C120.029 20.9444 119.838 20.7409 119.588 20.5908C119.338 20.4406 119.028 20.3345 118.659 20.2718C118.29 20.2092 117.868 20.1779 117.392 20.1779H117.148C116.222 20.1779 115.565 20.3313 115.178 20.6377C114.79 20.9444 114.596 21.4854 114.596 22.2611L114.596 22.505Z" fill="#FFF"/>
        <path d="M124.111 25.3953V19.0331C124.111 18.3826 124.183 17.8445 124.327 17.419C124.471 16.9939 124.687 16.6528 124.975 16.3962C125.262 16.1399 125.619 15.9616 126.044 15.8613C126.47 15.7613 126.964 15.7112 127.527 15.7112H128.709C129.085 15.7112 129.379 15.7176 129.592 15.7299L129.385 16.7058C129.222 16.6935 128.963 16.6841 128.606 16.6777C128.25 16.6715 127.909 16.6683 127.583 16.6683C127.108 16.6683 126.717 16.7091 126.41 16.7903C126.104 16.8718 125.863 17.0061 125.688 17.1938C125.512 17.3815 125.388 17.6348 125.312 17.9539C125.237 18.2729 125.2 18.6765 125.2 19.1645V25.3953H124.111Z" fill="#FFF"/>
        <path d="M131.449 13.3089L132.538 13.1024V15.7487H136.498L136.291 16.6871H132.538V22.1109C132.538 22.5741 132.569 22.9555 132.632 23.2558C132.694 23.5561 132.81 23.7939 132.979 23.9689C133.148 24.1443 133.379 24.2663 133.673 24.3349C133.967 24.4038 134.352 24.4381 134.827 24.4381H136.272L136.066 25.3953H134.827C134.189 25.3953 133.654 25.3485 133.223 25.2546C132.791 25.1608 132.444 24.9918 132.181 24.7478C131.918 24.5039 131.731 24.1725 131.618 23.7531C131.505 23.3341 131.449 22.793 131.449 22.1298V13.3089Z" fill="#FFF"/>
        <path d="M142.709 20.0277C143.235 20.0779 143.67 20.1749 144.014 20.3186C144.358 20.4626 144.636 20.641 144.849 20.8536C145.062 21.0664 145.212 21.3166 145.299 21.6042C145.387 21.8922 145.431 22.2048 145.431 22.5426V22.7116C145.431 23.1497 145.371 23.5373 145.253 23.8751C145.133 24.213 144.936 24.4977 144.661 24.729C144.386 24.9607 144.02 25.1358 143.563 25.2546C143.107 25.3737 142.541 25.4328 141.865 25.4328H139.81C139.491 25.4328 139.172 25.4296 138.853 25.4234C138.534 25.417 138.199 25.4076 137.849 25.3953L138.055 24.4381C138.618 24.4634 139.203 24.4758 139.81 24.4758H141.902C142.39 24.4758 142.794 24.4475 143.113 24.3913C143.432 24.3349 143.685 24.235 143.873 24.091C144.061 23.9473 144.189 23.7596 144.258 23.528C144.326 23.2966 144.361 23.0057 144.361 22.6552C144.361 22.1298 144.23 21.7451 143.967 21.501C143.704 21.2571 143.222 21.104 142.522 21.0412L140.514 20.8536C139.588 20.7536 138.921 20.5001 138.515 20.0935C138.108 19.687 137.905 19.1207 137.905 18.395V18.1886C137.905 17.3504 138.183 16.7278 138.74 16.3211C139.297 15.9147 140.176 15.7112 141.377 15.7112H143.197C143.823 15.7112 144.499 15.7238 145.224 15.7487L145.018 16.7058C144.38 16.6809 143.742 16.6683 143.104 16.6683H141.321C140.445 16.6683 139.831 16.7842 139.481 17.0156C139.131 17.2472 138.956 17.6442 138.956 18.2073C138.956 18.4451 138.978 18.6548 139.022 18.836C139.065 19.0175 139.15 19.1771 139.275 19.3146C139.4 19.4524 139.581 19.565 139.819 19.6524C140.057 19.7401 140.364 19.8026 140.739 19.8401L142.709 20.0277Z" fill="#FFF"/>
    </g>
    <defs>
        <clipPath id="clip0_1010_20985">
            <rect width="145.431" height="40" fill="white"/>
        </clipPath>
    </defs>
</svg>
